<svg width="100" height="100" viewBox="0 0 100 100" fill="none" xmlns="http://www.w3.org/2000/svg">
<mask id="mask0" mask-type="alpha" maskUnits="userSpaceOnUse" x="0" y="0" width="100" height="100">
<path fill-rule="evenodd" clip-rule="evenodd" d="M65.1358 0C75.175 0 80.1933 0 85.5975 1.70833C91.4975 3.85583 96.1442 8.5025 98.2917 14.4025C100 19.8058 100 24.8258 100 34.8642V65.1358C100 75.175 100 80.1933 98.2917 85.5975C96.1442 91.4975 91.4975 96.1442 85.5975 98.2908C80.1933 100 75.175 100 65.1358 100H34.8642C24.825 100 19.8058 100 14.4025 98.2908C8.5025 96.1442 3.85583 91.4975 1.70833 85.5975C0 80.1933 0 75.175 0 65.1358V34.8642C0 24.8258 0 19.8058 1.70833 14.4025C3.85583 8.5025 8.5025 3.85583 14.4025 1.70833C19.8058 0 24.825 0 34.8642 0H65.1358Z" fill="url(#paint0_linear)"/>
</mask>
<g mask="url(#mask0)">
<path fill-rule="evenodd" clip-rule="evenodd" d="M65.1358 0C75.175 0 80.1933 0 85.5975 1.70833C91.4975 3.85583 96.1442 8.5025 98.2917 14.4025C100 19.8058 100 24.8258 100 34.8642V65.1358C100 75.175 100 80.1933 98.2917 85.5975C96.1442 91.4975 91.4975 96.1442 85.5975 98.2908C80.1933 100 75.175 100 65.1358 100H34.8642C24.825 100 19.8058 100 14.4025 98.2908C8.5025 96.1442 3.85583 91.4975 1.70833 85.5975C0 80.1933 0 75.175 0 65.1358V34.8642C0 24.8258 0 19.8058 1.70833 14.4025C3.85583 8.5025 8.5025 3.85583 14.4025 1.70833C19.8058 0 24.825 0 34.8642 0H65.1358Z" fill="url(#paint1_linear)"/>
<path opacity="0.5" d="M61.0998 18.8337C68.6161 18.8337 71.3862 18.8848 74.3296 19.794C77.0432 20.8161 79.1845 22.9575 80.2066 25.6711C81.1158 28.6138 81.1668 31.3849 81.1668 38.9008V61.1C81.1668 68.6163 81.1158 71.3864 80.2066 74.3298C79.1843 77.0437 77.0428 79.1848 74.3295 80.2063C71.3863 81.116 68.6167 81.1671 61.0998 81.1671H38.9006C31.3833 81.1671 28.6134 81.116 25.6709 80.2063C22.9575 79.1849 20.816 77.0437 19.7937 74.3298C18.8845 71.3864 18.8335 68.6163 18.8335 61.1V38.9008C18.8335 31.3848 18.8846 28.6138 19.7937 25.6711C20.8158 22.9574 22.9572 20.8161 25.6709 19.7939C28.6135 18.8848 31.384 18.8337 38.9006 18.8337H61.0998Z" stroke="url(#paint2_linear)" stroke-width="11"/>
<path d="M63.121 11.1664C71.9573 11.1664 75.5536 11.2086 79.4035 12.408C83.1956 13.8173 86.1857 16.8074 87.595 20.5995C88.7943 24.4486 88.8366 28.0461 88.8366 36.882V63.1174C88.8366 71.9538 88.7944 75.5501 87.595 79.3999C86.1856 83.1923 83.1954 86.1822 79.4035 87.5907C75.5537 88.7908 71.9578 88.833 63.121 88.833H36.8855C28.0484 88.833 24.4521 88.7908 20.6031 87.5907C16.8111 86.1822 13.8209 83.1923 12.4115 79.3999C11.2121 75.5501 11.1699 71.9538 11.1699 63.1174V36.882C11.1699 28.0462 11.2121 24.4487 12.4115 20.5996C13.8208 16.8073 16.8109 13.8172 20.6031 12.4079C24.4522 11.2086 28.049 11.1664 36.8855 11.1664H63.121Z" stroke="url(#paint3_linear)" stroke-width="9"/>
</g>
<path d="M36.7138 44.6857V60.944C36.7138 61.5921 36.1859 62.1175 35.5348 62.1175C35.3583 62.1175 35.184 62.0781 35.0249 62.0021L30.6656 59.9204C30.2567 59.7251 29.9966 59.3138 29.9966 58.8624V47.7304L36.7138 44.6857ZM45.0345 40.914V60.944C45.0345 61.5921 44.5066 62.1175 43.8555 62.1175C43.679 62.1175 43.5047 62.0781 43.3456 62.0021L38.9863 59.9204C38.5774 59.7251 38.3173 59.3138 38.3173 58.8624V43.9588L45.0345 40.914ZM46.638 40.1872L47.3133 39.8811C49.2391 39.0081 51.287 38.5025 53.3552 38.3658V60.944C53.3552 61.5921 52.8273 62.1175 52.1762 62.1175C51.9997 62.1175 51.8254 62.0781 51.6663 62.0021L47.307 59.9204C46.8981 59.7251 46.638 59.3138 46.638 58.8624V40.1872ZM61.6759 39.8617V60.944C61.6759 61.5921 61.148 62.1175 60.4969 62.1175C60.3204 62.1175 60.1461 62.0781 59.987 62.0021L55.6277 59.9204C55.2188 59.7251 54.9587 59.3138 54.9587 58.8624V38.3337C57.0675 38.3886 59.1702 38.8262 61.1594 39.6482L61.6759 39.8617ZM69.9966 48.1603L69.9923 52.7433L63.2794 55.5176V40.5244L69.9923 43.2987V47.8817L69.9966 48.1603Z" fill="white"/>
<defs>
<linearGradient id="paint0_linear" x1="25.6451" y1="102.083" x2="22.9205" y2="9.0286e-06" gradientUnits="userSpaceOnUse">
<stop stop-color="#007AFF"/>
<stop offset="1" stop-color="#003671"/>
</linearGradient>
<linearGradient id="paint1_linear" x1="82.5" y1="82.5" x2="-0.000235296" y2="0.000235297" gradientUnits="userSpaceOnUse">
<stop stop-color="#002F62"/>
<stop offset="1"/>
</linearGradient>
<linearGradient id="paint2_linear" x1="50.0002" y1="13.3337" x2="50.0002" y2="86.6671" gradientUnits="userSpaceOnUse">
<stop stop-color="#8DBEFF"/>
<stop offset="1" stop-color="#0052BF"/>
</linearGradient>
<linearGradient id="paint3_linear" x1="50.0032" y1="6.66638" x2="50.0032" y2="93.333" gradientUnits="userSpaceOnUse">
<stop stop-color="#8DBEFF"/>
<stop offset="1" stop-color="#0052BF"/>
</linearGradient>
</defs>
</svg>
